<?xml version="1.0" standalone="no"?><!DOCTYPE svg PUBLIC "-//W3C//DTD SVG 1.1//EN" "http://www.w3.org/Graphics/SVG/1.1/DTD/svg11.dtd"><svg t="1552199250454" class="icon" style="" viewBox="0 0 1024 1024" version="1.1" xmlns="http://www.w3.org/2000/svg" p-id="1927" xmlns:xlink="http://www.w3.org/1999/xlink" width="200" height="200"><defs><style type="text/css"></style></defs><path d="M687.98464 379.214507c-68.922027-57.320107-57.52832-150.213973-180.097707-149.036374-136.707413 1.317547-95.46752 95.464107-176.994986 155.194027-90.23488 66.0992-165.96992 160.938667-165.96992 272.633173 0 187.46368 146.558293 293.464747 349.15328 293.464747s349.149867-106.001067 349.149866-293.464747c0-115.490133-97.2288-213.917013-175.240533-278.790826z" fill="#F1F95D" p-id="1928"></path><path d="M514.071893 971.946667c-224.54272 0-369.63328-123.231573-369.63328-313.944747 0-104.103253 61.917867-206.793387 174.34624-289.153707 27.204267-19.930453 38.44096-43.905707 50.336427-69.290666 20.486827-43.717973 41.669973-88.92416 138.564267-89.859414l2.495146-0.013653c89.71264 0 118.336853 48.749227 143.592107 91.757227 12.8 21.797547 26.036907 44.3392 47.301973 62.02368 122.89024 102.191787 182.626987 198.536533 182.623574 294.536533 0.003413 190.713173-145.083733 313.944747-369.626454 313.944747z m-3.887786-721.298774l-2.0992 0.01024c-71.130453 0.68608-83.360427 26.781013-101.870934 66.28352-12.926293 27.579733-27.572907 58.835627-63.218346 84.954454-58.856107 43.113813-157.5936 133.717333-157.5936 256.109226 0 168.383147 125.938347 272.984747 328.67328 272.984747 202.73152 0 328.669867-104.6016 328.669866-272.984747 0.003413-83.073707-54.903467-169.1136-167.85408-263.041706-26.774187-22.26176-42.530133-49.1008-56.43264-72.77568-24.39168-41.53344-42.011307-71.540053-108.274346-71.540054z" fill="#FAFF24" p-id="1929"></path><path d="M481.52576 260.232533a24.589653 15.91296 0 1 0 49.179307 0 24.589653 15.91296 0 1 0-49.179307 0Z" fill="#84F75E" p-id="1930"></path><path d="M506.115413 293.21216c-23.35744 0-41.65632-14.486187-41.65632-32.979627s18.29888-32.979627 41.65632-32.979626c23.360853 0 41.65632 14.486187 41.65632 32.979626s-18.295467 32.979627-41.65632 32.979627z" fill="#34B704" p-id="1931"></path><path d="M506.118827 260.232533s-10.605227-171.482453 24.75008-196.232533" fill="#84F75E" p-id="1932"></path><path d="M506.10176 277.2992a17.05984 17.05984 0 0 1-17.015467-16.011947c-0.11264-1.785173-2.686293-44.25728-0.904533-90.545493 3.46112-89.98912 20.435627-111.998293 32.90112-120.722773a17.066667 17.066667 0 0 1 19.572053 27.962026c-14.660267 10.26048-22.8352 94.93504-17.503573 181.1968a17.066667 17.066667 0 0 1-17.0496 18.121387z" fill="#34B704" p-id="1933"></path><path d="M650.43456 380.050773c75.209387 58.883413 165.317973 79.13472 237.305173 68.273494-23.197013-28.06784-43.74528-53.111467-56.050346-83.090774-9.19552-22.411947-27.951787-85.37088-82.57536-126.747306-76.192427-57.709227-165.321387-79.131307-237.315414-68.273494 24.548693 20.473173 60.49792 59.333973 73.10336 103.56736 11.793067 41.345707 27.572907 76.55424 65.532587 106.27072z" fill="#5AE500" p-id="1934"></path><path d="M849.384107 471.610027c-74.31168 0-149.445973-26.791253-211.575467-75.434667-44.448427-34.79552-61.16352-76.690773-72.6016-116.77696-10.468693-36.737707-41.229653-72.36608-66.525867-93.457067a20.48 20.48 0 0 1 10.062507-35.979946 271.31904 271.31904 0 0 1 40.2944-2.94912c73.014613 0 148.45952 26.688853 212.442453 75.147946 52.92032 40.086187 75.052373 98.362027 85.691734 126.365014 1.307307 3.44064 2.443947 6.4512 3.464533 8.932693 11.267413 27.456853 31.488 51.920213 52.8896 77.820587a20.476587 20.476587 0 0 1-12.735147 33.297066 278.910293 278.910293 0 0 1-41.407146 3.034454z m-290.46784-283.4432c17.616213 20.456107 36.608 48.165547 45.68064 79.998293 11.021653 38.63552 25.183573 69.710507 58.46016 95.757653 53.5552 41.929387 120.552107 66.177707 184.1664 66.7136-13.70112-17.984853-25.81504-36.509013-34.481494-57.63072-1.133227-2.7648-2.409813-6.109867-3.863893-9.939626-9.99424-26.309973-28.593493-75.277653-72.133973-108.260694-53.16608-40.270507-117.425493-64.259413-177.82784-66.638506z" fill="#34B704" p-id="1935"></path><path d="M758.48704 792.630613m-10.973867 0a10.973867 10.973867 0 1 0 21.947734 0 10.973867 10.973867 0 1 0-21.947734 0Z" fill="#FFFFFF" p-id="1936"></path><path d="M531.357013 610.215253m-10.96704 0a10.96704 10.96704 0 1 0 21.93408 0 10.96704 10.96704 0 1 0-21.93408 0Z" fill="#FFFFFF" p-id="1937"></path><path d="M612.519253 630.237867m-10.973866 0a10.973867 10.973867 0 1 0 21.947733 0 10.973867 10.973867 0 1 0-21.947733 0Z" fill="#FFFFFF" p-id="1938"></path><path d="M505.94816 758.749867m-10.970453 0a10.970453 10.970453 0 1 0 21.940906 0 10.970453 10.970453 0 1 0-21.940906 0Z" fill="#FFFFFF" p-id="1939"></path><path d="M705.262933 516.143787m-10.973866 0a10.973867 10.973867 0 1 0 21.947733 0 10.973867 10.973867 0 1 0-21.947733 0Z" fill="#FFFFFF" p-id="1940"></path><path d="M713.458347 752.735573m-10.970454 0a10.970453 10.970453 0 1 0 21.940907 0 10.970453 10.970453 0 1 0-21.940907 0Z" fill="#FFFFFF" p-id="1941"></path><path d="M651.721387 794.494293m-10.96704 0a10.96704 10.96704 0 1 0 21.93408 0 10.96704 10.96704 0 1 0-21.93408 0Z" fill="#FFFFFF" p-id="1942"></path><path d="M658.78016 872.635733m-10.970453 0a10.970453 10.970453 0 1 0 21.940906 0 10.970453 10.970453 0 1 0-21.940906 0Z" fill="#FFFFFF" p-id="1943"></path><path d="M625.95072 840.301227m-10.970453 0a10.970453 10.970453 0 1 0 21.940906 0 10.970453 10.970453 0 1 0-21.940906 0Z" fill="#FFFFFF" p-id="1944"></path><path d="M345.55904 847.714987m-10.970453 0a10.970453 10.970453 0 1 0 21.940906 0 10.970453 10.970453 0 1 0-21.940906 0Z" fill="#FFFFFF" p-id="1945"></path><path d="M551.738027 816.81408m-10.973867 0a10.973867 10.973867 0 1 0 21.947733 0 10.973867 10.973867 0 1 0-21.947733 0Z" fill="#FFFFFF" p-id="1946"></path><path d="M715.578027 821.753173m-10.973867 0a10.973867 10.973867 0 1 0 21.947733 0 10.973867 10.973867 0 1 0-21.947733 0Z" fill="#FFFFFF" p-id="1947"></path><path d="M696.674987 796.30336m-10.970454 0a10.970453 10.970453 0 1 0 21.940907 0 10.970453 10.970453 0 1 0-21.940907 0Z" fill="#FFFFFF" p-id="1948"></path><path d="M771.048107 730.955093m-10.970454 0a10.970453 10.970453 0 1 0 21.940907 0 10.970453 10.970453 0 1 0-21.940907 0Z" fill="#FFFFFF" p-id="1949"></path><path d="M519.656107 897.3312m-10.970454 0a10.970453 10.970453 0 1 0 21.940907 0 10.970453 10.970453 0 1 0-21.940907 0Z" fill="#FFFFFF" p-id="1950"></path><path d="M450.010453 862.72m-10.970453 0a10.970453 10.970453 0 1 0 21.940907 0 10.970453 10.970453 0 1 0-21.940907 0Z" fill="#FFFFFF" p-id="1951"></path><path d="M658.244267 732.66176m-10.970454 0a10.970453 10.970453 0 1 0 21.940907 0 10.970453 10.970453 0 1 0-21.940907 0Z" fill="#FFFFFF" p-id="1952"></path><path d="M743.092907 571.38176m-10.970454 0a10.970453 10.970453 0 1 0 21.940907 0 10.970453 10.970453 0 1 0-21.940907 0Z" fill="#FFFFFF" p-id="1953"></path><path d="M526.404267 357.010773m-10.973867 0a10.973867 10.973867 0 1 0 21.947733 0 10.973867 10.973867 0 1 0-21.947733 0Z" fill="#FFFFFF" p-id="1954"></path><path d="M681.854293 681.813333m-10.96704 0a10.96704 10.96704 0 1 0 21.93408 0 10.96704 10.96704 0 1 0-21.93408 0Z" fill="#FFFFFF" p-id="1955"></path><path d="M783.837867 629.99552m-10.973867 0a10.973867 10.973867 0 1 0 21.947733 0 10.973867 10.973867 0 1 0-21.947733 0Z" fill="#FFFFFF" p-id="1956"></path><path d="M268.67712 799.952213a20.473173 20.473173 0 0 1-17.988267-10.65984c-1.000107-1.829547-24.55552-45.513387-29.313706-105.936213-4.44416-56.436053 7.144107-138.571093 87.599786-209.353387a20.48 20.48 0 0 1 27.05408 30.754134c-129.634987 114.049707-50.21696 263.39328-49.401173 264.88832a20.48 20.48 0 0 1-17.95072 30.306986z" fill="#FFFFFF" p-id="1957"></path><path d="M368.831147 451.590827m-23.886507 0a23.886507 23.886507 0 1 0 47.773013 0 23.886507 23.886507 0 1 0-47.773013 0Z" fill="#FFFFFF" p-id="1958"></path></svg>